<?xml version="1.0" encoding="utf-8"?>
<!-- Generator: Adobe Illustrator 23.1.0, SVG Export Plug-In . SVG Version: 6.00 Build 0)  -->
<svg version="1.1" id="Layer_2" xmlns="http://www.w3.org/2000/svg" xmlns:xlink="http://www.w3.org/1999/xlink" x="0px" y="0px"
	 viewBox="0 0 25 25" style="enable-background:new 0 0 25 25;" xml:space="preserve">
<g>
	<path d="M19.61,2.11V0.23h-1.98v1.88H7.34V0.23H5.36v1.88H0.3v7.27v15.38H24.7V9.39V2.11H19.61z M5.36,4.09v2.26h1.98V4.09h10.29
		v2.26h1.98V4.09h3.11V8.4H2.28V4.09H5.36z M2.28,22.79V10.38h20.44v12.41H2.28z"/>
	<rect x="9.41" y="13.48" width="2.04" height="1.98"/>
	<rect x="13.45" y="13.48" width="2.04" height="1.98"/>
	<rect x="17.6" y="13.48" width="2.04" height="1.98"/>
	<rect x="5.36" y="17.56" width="2.04" height="1.98"/>
	<rect x="9.4" y="17.56" width="2.04" height="1.98"/>
	<rect x="13.49" y="17.56" width="2.04" height="1.98"/>
</g>
</svg>
