<?xml version="1.0" encoding="utf-8"?>
<!-- Generator: Adobe Illustrator 23.1.0, SVG Export Plug-In . SVG Version: 6.00 Build 0)  -->
<svg version="1.1" id="Layer_3" xmlns="http://www.w3.org/2000/svg" xmlns:xlink="http://www.w3.org/1999/xlink" x="0px" y="0px"
	 viewBox="0 0 25 25" style="enable-background:new 0 0 25 25;" xml:space="preserve">
<path d="M24.8,23.28l-6.2-6.2c1.42-1.77,2.28-4.02,2.28-6.46c0-5.7-4.64-10.34-10.34-10.34C4.83,0.27,0.2,4.91,0.2,10.61
	c0,5.7,4.64,10.34,10.34,10.34c2.52,0,4.83-0.91,6.63-2.41l6.19,6.19L24.8,23.28z M10.54,18.9c-4.57,0-8.29-3.72-8.29-8.29
	c0-4.57,3.72-8.29,8.29-8.29s8.29,3.72,8.29,8.29C18.82,15.18,15.11,18.9,10.54,18.9z"/>
</svg>
