<svg id="Layer_2" data-name="Layer 2" xmlns="http://www.w3.org/2000/svg" viewBox="0 0 43.98 43.32"><defs><style>.cls-1{fill:#fff;}</style></defs><title>logo</title><path class="cls-1" d="M22.5,44.16A21.86,21.86,0,0,1,.51,22.5,21.86,21.86,0,0,1,22.5.84a21.85,21.85,0,0,1,22,21.66A21.85,21.85,0,0,1,22.5,44.16Zm0-38.73A17.25,17.25,0,0,0,5.11,22.5,17.25,17.25,0,0,0,22.5,39.57,17.25,17.25,0,0,0,39.89,22.5,17.25,17.25,0,0,0,22.5,5.43Z" transform="translate(-0.51 -0.84)"/><path class="cls-1" d="M29.1,13a7.52,7.52,0,0,0-4.61-1.58H14.87V33.93h8.89c2.12,0,4.49-.36,6-1.9l.9-.92c1.06-1.08,1.3-3.05,1.3-4.58V18.79A7.34,7.34,0,0,0,29.1,13ZM26.9,27c0,2.58-3.24,2.58-3.24,2.58H19.75V15.4h3.91C26.9,15.4,26.9,18,26.9,18Z" transform="translate(-0.51 -0.84)"/></svg>